<svg xmlns="http://www.w3.org/2000/svg" version="1.1" xmlns:xlink="http://www.w3.org/1999/xlink" xmlns:svgjs="http://svgjs.dev/svgjs" width="1440" height="560" preserveAspectRatio="none" viewBox="0 0 1440 560"><g mask="url(&quot;#SvgjsMask1024&quot;)" fill="none"><rect width="1440" height="560" x="0" y="0" fill="rgba(33, 37, 41, 1)"></rect><path d="M85.83 282.57L150.79 320.07L150.79 395.07L85.83 432.57L20.88 395.07L20.88 320.07zM20.88 395.07L85.83 432.57L85.83 507.57L20.88 545.07L-44.07 507.57L-44.07 432.57zM85.83 507.57L150.79 545.07L150.79 620.07L85.83 657.57L20.88 620.07L20.88 545.07zM345.65 282.57L410.6 320.07L410.6 395.07L345.65 432.57L280.69 395.07L280.69 320.07zM280.69 395.07L345.65 432.57L345.65 507.57L280.69 545.07L215.74 507.57L215.74 432.57zM475.56 282.57L540.51 320.07L540.51 395.07L475.56 432.57L410.6 395.07L410.6 320.07zM410.6 395.07L475.56 432.57L475.56 507.57L410.6 545.07L345.65 507.57L345.65 432.57zM540.51 -54.93L605.46 -17.43L605.46 57.57L540.51 95.07L475.56 57.57L475.56 -17.43zM540.51 170.07L605.46 207.57L605.46 282.57L540.51 320.07L475.56 282.57L475.56 207.57zM605.46 282.57L670.42 320.07L670.42 395.07L605.46 432.57L540.51 395.07L540.51 320.07zM670.42 170.07L735.37 207.57L735.37 282.57L670.42 320.07L605.46 282.57L605.46 207.57zM865.28 282.57L930.23 320.07L930.23 395.07L865.28 432.57L800.32 395.07L800.32 320.07zM930.23 -54.93L995.19 -17.43L995.19 57.57L930.23 95.07L865.28 57.57L865.28 -17.43zM995.19 282.57L1060.14 320.07L1060.14 395.07L995.19 432.57L930.23 395.07L930.23 320.07zM1060.14 170.07L1125.09 207.57L1125.09 282.57L1060.14 320.07L995.19 282.57L995.19 207.57zM1060.14 395.07L1125.09 432.57L1125.09 507.57L1060.14 545.07L995.19 507.57L995.19 432.57zM1319.96 -54.93L1384.91 -17.43L1384.91 57.57L1319.96 95.07L1255 57.57L1255 -17.43zM1514.82 57.57L1579.77 95.07L1579.77 170.07L1514.82 207.57L1449.86 170.07L1449.86 95.07zM1514.82 282.57L1579.77 320.07L1579.77 395.07L1514.82 432.57L1449.86 395.07L1449.86 320.07z" stroke="rgba(4, 49, 89, 1)" stroke-width="2"></path><path d="M78.33 282.57 a7.5 7.5 0 1 0 15 0 a7.5 7.5 0 1 0 -15 0zM143.29 320.07 a7.5 7.5 0 1 0 15 0 a7.5 7.5 0 1 0 -15 0zM143.29 395.07 a7.5 7.5 0 1 0 15 0 a7.5 7.5 0 1 0 -15 0zM78.33 432.57 a7.5 7.5 0 1 0 15 0 a7.5 7.5 0 1 0 -15 0zM13.38 395.07 a7.5 7.5 0 1 0 15 0 a7.5 7.5 0 1 0 -15 0zM13.38 320.07 a7.5 7.5 0 1 0 15 0 a7.5 7.5 0 1 0 -15 0zM78.33 507.57 a7.5 7.5 0 1 0 15 0 a7.5 7.5 0 1 0 -15 0zM13.38 545.07 a7.5 7.5 0 1 0 15 0 a7.5 7.5 0 1 0 -15 0zM-51.57 507.57 a7.5 7.5 0 1 0 15 0 a7.5 7.5 0 1 0 -15 0zM-51.57 432.57 a7.5 7.5 0 1 0 15 0 a7.5 7.5 0 1 0 -15 0zM143.29 545.07 a7.5 7.5 0 1 0 15 0 a7.5 7.5 0 1 0 -15 0zM143.29 620.07 a7.5 7.5 0 1 0 15 0 a7.5 7.5 0 1 0 -15 0zM78.33 657.57 a7.5 7.5 0 1 0 15 0 a7.5 7.5 0 1 0 -15 0zM13.38 620.07 a7.5 7.5 0 1 0 15 0 a7.5 7.5 0 1 0 -15 0zM338.15 282.57 a7.5 7.5 0 1 0 15 0 a7.5 7.5 0 1 0 -15 0zM403.1 320.07 a7.5 7.5 0 1 0 15 0 a7.5 7.5 0 1 0 -15 0zM403.1 395.07 a7.5 7.5 0 1 0 15 0 a7.5 7.5 0 1 0 -15 0zM338.15 432.57 a7.5 7.5 0 1 0 15 0 a7.5 7.5 0 1 0 -15 0zM273.19 395.07 a7.5 7.5 0 1 0 15 0 a7.5 7.5 0 1 0 -15 0zM273.19 320.07 a7.5 7.5 0 1 0 15 0 a7.5 7.5 0 1 0 -15 0zM338.15 507.57 a7.5 7.5 0 1 0 15 0 a7.5 7.5 0 1 0 -15 0zM273.19 545.07 a7.5 7.5 0 1 0 15 0 a7.5 7.5 0 1 0 -15 0zM208.24 507.57 a7.5 7.5 0 1 0 15 0 a7.5 7.5 0 1 0 -15 0zM208.24 432.57 a7.5 7.5 0 1 0 15 0 a7.5 7.5 0 1 0 -15 0zM468.06 282.57 a7.5 7.5 0 1 0 15 0 a7.5 7.5 0 1 0 -15 0zM533.01 320.07 a7.5 7.5 0 1 0 15 0 a7.5 7.5 0 1 0 -15 0zM533.01 395.07 a7.5 7.5 0 1 0 15 0 a7.5 7.5 0 1 0 -15 0zM468.06 432.57 a7.5 7.5 0 1 0 15 0 a7.5 7.5 0 1 0 -15 0zM468.06 507.57 a7.5 7.5 0 1 0 15 0 a7.5 7.5 0 1 0 -15 0zM403.1 545.07 a7.5 7.5 0 1 0 15 0 a7.5 7.5 0 1 0 -15 0zM533.01 -54.93 a7.5 7.5 0 1 0 15 0 a7.5 7.5 0 1 0 -15 0zM597.96 -17.43 a7.5 7.5 0 1 0 15 0 a7.5 7.5 0 1 0 -15 0zM597.96 57.57 a7.5 7.5 0 1 0 15 0 a7.5 7.5 0 1 0 -15 0zM533.01 95.07 a7.5 7.5 0 1 0 15 0 a7.5 7.5 0 1 0 -15 0zM468.06 57.57 a7.5 7.5 0 1 0 15 0 a7.5 7.5 0 1 0 -15 0zM468.06 -17.43 a7.5 7.5 0 1 0 15 0 a7.5 7.5 0 1 0 -15 0zM533.01 170.07 a7.5 7.5 0 1 0 15 0 a7.5 7.5 0 1 0 -15 0zM597.96 207.57 a7.5 7.5 0 1 0 15 0 a7.5 7.5 0 1 0 -15 0zM597.96 282.57 a7.5 7.5 0 1 0 15 0 a7.5 7.5 0 1 0 -15 0zM468.06 207.57 a7.5 7.5 0 1 0 15 0 a7.5 7.5 0 1 0 -15 0zM662.92 320.07 a7.5 7.5 0 1 0 15 0 a7.5 7.5 0 1 0 -15 0zM662.92 395.07 a7.5 7.5 0 1 0 15 0 a7.5 7.5 0 1 0 -15 0zM597.96 432.57 a7.5 7.5 0 1 0 15 0 a7.5 7.5 0 1 0 -15 0zM662.92 170.07 a7.5 7.5 0 1 0 15 0 a7.5 7.5 0 1 0 -15 0zM727.87 207.57 a7.5 7.5 0 1 0 15 0 a7.5 7.5 0 1 0 -15 0zM727.87 282.57 a7.5 7.5 0 1 0 15 0 a7.5 7.5 0 1 0 -15 0zM857.78 282.57 a7.5 7.5 0 1 0 15 0 a7.5 7.5 0 1 0 -15 0zM922.73 320.07 a7.5 7.5 0 1 0 15 0 a7.5 7.5 0 1 0 -15 0zM922.73 395.07 a7.5 7.5 0 1 0 15 0 a7.5 7.5 0 1 0 -15 0zM857.78 432.57 a7.5 7.5 0 1 0 15 0 a7.5 7.5 0 1 0 -15 0zM792.82 395.07 a7.5 7.5 0 1 0 15 0 a7.5 7.5 0 1 0 -15 0zM792.82 320.07 a7.5 7.5 0 1 0 15 0 a7.5 7.5 0 1 0 -15 0zM922.73 -54.93 a7.5 7.5 0 1 0 15 0 a7.5 7.5 0 1 0 -15 0zM987.69 -17.43 a7.5 7.5 0 1 0 15 0 a7.5 7.5 0 1 0 -15 0zM987.69 57.57 a7.5 7.5 0 1 0 15 0 a7.5 7.5 0 1 0 -15 0zM922.73 95.07 a7.5 7.5 0 1 0 15 0 a7.5 7.5 0 1 0 -15 0zM857.78 57.57 a7.5 7.5 0 1 0 15 0 a7.5 7.5 0 1 0 -15 0zM857.78 -17.43 a7.5 7.5 0 1 0 15 0 a7.5 7.5 0 1 0 -15 0zM987.69 282.57 a7.5 7.5 0 1 0 15 0 a7.5 7.5 0 1 0 -15 0zM1052.64 320.07 a7.5 7.5 0 1 0 15 0 a7.5 7.5 0 1 0 -15 0zM1052.64 395.07 a7.5 7.5 0 1 0 15 0 a7.5 7.5 0 1 0 -15 0zM987.69 432.57 a7.5 7.5 0 1 0 15 0 a7.5 7.5 0 1 0 -15 0zM1052.64 170.07 a7.5 7.5 0 1 0 15 0 a7.5 7.5 0 1 0 -15 0zM1117.59 207.57 a7.5 7.5 0 1 0 15 0 a7.5 7.5 0 1 0 -15 0zM1117.59 282.57 a7.5 7.5 0 1 0 15 0 a7.5 7.5 0 1 0 -15 0zM987.69 207.57 a7.5 7.5 0 1 0 15 0 a7.5 7.5 0 1 0 -15 0zM1117.59 432.57 a7.5 7.5 0 1 0 15 0 a7.5 7.5 0 1 0 -15 0zM1117.59 507.57 a7.5 7.5 0 1 0 15 0 a7.5 7.5 0 1 0 -15 0zM1052.64 545.07 a7.5 7.5 0 1 0 15 0 a7.5 7.5 0 1 0 -15 0zM987.69 507.57 a7.5 7.5 0 1 0 15 0 a7.5 7.5 0 1 0 -15 0zM1312.46 -54.93 a7.5 7.5 0 1 0 15 0 a7.5 7.5 0 1 0 -15 0zM1377.41 -17.43 a7.5 7.5 0 1 0 15 0 a7.5 7.5 0 1 0 -15 0zM1377.41 57.57 a7.5 7.5 0 1 0 15 0 a7.5 7.5 0 1 0 -15 0zM1312.46 95.07 a7.5 7.5 0 1 0 15 0 a7.5 7.5 0 1 0 -15 0zM1247.5 57.57 a7.5 7.5 0 1 0 15 0 a7.5 7.5 0 1 0 -15 0zM1247.5 -17.43 a7.5 7.5 0 1 0 15 0 a7.5 7.5 0 1 0 -15 0zM1507.32 57.57 a7.5 7.5 0 1 0 15 0 a7.5 7.5 0 1 0 -15 0zM1572.27 95.07 a7.5 7.5 0 1 0 15 0 a7.5 7.5 0 1 0 -15 0zM1572.27 170.07 a7.5 7.5 0 1 0 15 0 a7.5 7.5 0 1 0 -15 0zM1507.32 207.57 a7.5 7.5 0 1 0 15 0 a7.5 7.5 0 1 0 -15 0zM1442.36 170.07 a7.5 7.5 0 1 0 15 0 a7.5 7.5 0 1 0 -15 0zM1442.36 95.07 a7.5 7.5 0 1 0 15 0 a7.5 7.5 0 1 0 -15 0zM1507.32 282.57 a7.5 7.5 0 1 0 15 0 a7.5 7.5 0 1 0 -15 0zM1572.27 320.07 a7.5 7.5 0 1 0 15 0 a7.5 7.5 0 1 0 -15 0zM1572.27 395.07 a7.5 7.5 0 1 0 15 0 a7.5 7.5 0 1 0 -15 0zM1507.32 432.57 a7.5 7.5 0 1 0 15 0 a7.5 7.5 0 1 0 -15 0zM1442.36 395.07 a7.5 7.5 0 1 0 15 0 a7.5 7.5 0 1 0 -15 0zM1442.36 320.07 a7.5 7.5 0 1 0 15 0 a7.5 7.5 0 1 0 -15 0z" fill="rgba(4, 49, 89, 1)"></path><path d="M38.24 146.58L81.54 171.58L81.54 221.58L38.24 246.58L-5.06 221.58L-5.06 171.58zM211.45 296.58L254.75 321.58L254.75 371.58L211.45 396.58L168.15 371.58L168.15 321.58zM211.45 446.58L254.75 471.58L254.75 521.58L211.45 546.58L168.15 521.58L168.15 471.58zM341.36 71.58L384.66 96.58L384.66 146.58L341.36 171.58L298.06 146.58L298.06 96.58zM427.96 71.58L471.27 96.58L471.27 146.58L427.96 171.58L384.66 146.58L384.66 96.58zM384.66 296.58L427.96 321.58L427.96 371.58L384.66 396.58L341.36 371.58L341.36 321.58zM427.96 371.58L471.27 396.58L471.27 446.58L427.96 471.58L384.66 446.58L384.66 396.58zM557.87 -3.42L601.17 21.58L601.17 71.58L557.87 96.58L514.57 71.58L514.57 21.58zM731.08 446.58L774.38 471.58L774.38 521.58L731.08 546.58L687.78 521.58L687.78 471.58zM817.69 446.58L860.99 471.58L860.99 521.58L817.69 546.58L774.38 521.58L774.38 471.58zM860.99 521.58L904.29 546.58L904.29 596.58L860.99 621.58L817.69 596.58L817.69 546.58zM1034.2 71.58L1077.5 96.58L1077.5 146.58L1034.2 171.58L990.9 146.58L990.9 96.58zM1077.5 -3.42L1120.8 21.58L1120.8 71.58L1077.5 96.58L1034.2 71.58L1034.2 21.58zM1077.5 146.58L1120.8 171.58L1120.8 221.58L1077.5 246.58L1034.2 221.58L1034.2 171.58zM1207.41 221.58L1250.71 246.58L1250.71 296.58L1207.41 321.58L1164.11 296.58L1164.11 246.58zM1207.41 371.58L1250.71 396.58L1250.71 446.58L1207.41 471.58L1164.11 446.58L1164.11 396.58zM1294.01 71.58L1337.32 96.58L1337.32 146.58L1294.01 171.58L1250.71 146.58L1250.71 96.58zM1294.01 521.58L1337.32 546.58L1337.32 596.58L1294.01 621.58L1250.71 596.58L1250.71 546.58zM1337.32 -3.42L1380.62 21.58L1380.62 71.58L1337.32 96.58L1294.01 71.58L1294.01 21.58zM1380.62 71.58L1423.92 96.58L1423.92 146.58L1380.62 171.58L1337.32 146.58L1337.32 96.58z" stroke="rgba(52, 58, 64, 1)" stroke-width="2"></path></g><defs><mask id="SvgjsMask1024"><rect width="1440" height="560" fill="#ffffff"></rect></mask></defs></svg>