<svg id="visual" viewBox="0 0 900 600" width="900" height="600" xmlns="http://www.w3.org/2000/svg" xmlns:xlink="http://www.w3.org/1999/xlink" version="1.1"><rect x="0" y="0" width="900" height="600" fill="#212529"></rect><path d="M0 281L16.7 290.2C33.3 299.3 66.7 317.7 100 321.8C133.3 326 166.7 316 200 317.5C233.3 319 266.7 332 300 333C333.3 334 366.7 323 400 315.7C433.3 308.3 466.7 304.7 500 315.8C533.3 327 566.7 353 600 366.7C633.3 380.3 666.7 381.7 700 379.5C733.3 377.3 766.7 371.7 800 363.5C833.3 355.3 866.7 344.7 883.3 339.3L900 334L900 601L883.3 601C866.7 601 833.3 601 800 601C766.7 601 733.3 601 700 601C666.7 601 633.3 601 600 601C566.7 601 533.3 601 500 601C466.7 601 433.3 601 400 601C366.7 601 333.3 601 300 601C266.7 601 233.3 601 200 601C166.7 601 133.3 601 100 601C66.7 601 33.3 601 16.7 601L0 601Z" fill="#032747" stroke-linecap="round" stroke-linejoin="miter"></path></svg>